<svg xmlns="http://www.w3.org/2000/svg" viewBox="0 0 393 300" fill="none">
  <path d="M16 258H377" stroke="#2B1512" stroke-width="3" stroke-linecap="round"/>
  <rect x="46" y="84" width="301" height="174" rx="22" fill="#F7F1EF" stroke="#2B1512" stroke-width="3"/>
  <path d="M42 80 53 43Q55 38 62 38H331Q338 38 340 43L351 80H42Z" fill="#F7F1EF" stroke="#2B1512" stroke-width="3" stroke-linejoin="round"/>
  <g stroke="#B32646" stroke-width="25" stroke-linecap="round">
    <path d="m76 39-6 41"/><path d="m128 39-3 41"/><path d="m180 39-1 41"/><path d="m232 39 1 41"/><path d="m284 39 3 41"/><path d="m336 39 6 41"/>
  </g>
  <path d="M42 80V91c0 15 23 20 28 2 5 18 23 18 28 0 5 18 23 18 28 0 5 18 23 18 28 0 5 18 23 18 28 0 5 18 23 18 28 0 5 18 23 18 28 0 5 18 23 18 28 0 5 18 23 18 28 0 5 18 23 18 28 0 5 18 23 13 28-2V80Z" fill="#F7F1EF" stroke="#2B1512" stroke-width="3" stroke-linejoin="round"/>
  <rect x="70" y="124" width="151" height="106" rx="18" fill="#B32646"/>
  <!-- Coffee cup: one rounded body, open handle, and a separate saucer. -->
  <path d="M173 175h9a12 12 0 0 1 0 24h-10" stroke="#F7F1EF" stroke-width="6" stroke-linecap="round"/>
  <path d="M115 171h58v18a24 24 0 0 1-24 24h-10a24 24 0 0 1-24-24v-18Z" fill="#F7F1EF"/>
  <path d="M111 220h68" stroke="#F7F1EF" stroke-width="5" stroke-linecap="round"/>
  <path d="M132 161c-5-3-5-6 0-9s5-6 0-9m22 18c-5-3-5-6 0-9s5-6 0-9" stroke="#F7F1EF" stroke-width="3.5" stroke-linecap="round"/>
  <rect x="242" y="124" width="78" height="134" rx="14" fill="#F7F1EF" stroke="#2B1512" stroke-width="3"/>
  <circle cx="300" cy="191" r="4" fill="#2B1512"/>
  <path d="M66 230H226" stroke="#2B1512" stroke-width="10" stroke-linecap="round"/>
  <path d="M27 258v-38m0 21c-18 0-18-20-18-20 18 0 18 20 18 20Zm0-12c17 0 17-19 17-19-17 0-17 19-17 19Z" fill="#8FA876" stroke="#2B1512" stroke-width="3" stroke-linejoin="round"/>
  <path d="M348 258v-31h25v31" fill="#8FA876" stroke="#2B1512" stroke-width="3" stroke-linejoin="round"/>
  <circle cx="360" cy="206" r="25" fill="#8FA876" stroke="#2B1512" stroke-width="3"/>
  <path d="M360 206v27" stroke="#2B1512" stroke-width="3" stroke-linecap="round"/>
</svg>
